<svg xmlns="http://www.w3.org/2000/svg" width="296" height="39" viewBox="0 0 296 39" fill="none"><path d="M45.3925 29.9714C38.3397 29.9714 32.623 24.0938 32.623 16.8437C32.623 9.59367 38.3397 3.71606 45.3925 3.71606C52.4454 3.71606 58.162 9.59367 58.162 16.8437C58.162 24.0938 52.4454 29.9714 45.3925 29.9714Z" fill="#FE7F4C"></path><path d="M17.4153 0.343018C17.0759 0.343018 16.8008 0.618048 16.8008 0.957476V23.3718C16.8008 26.2885 14.4664 30.0597 10.4698 30.0597C6.4731 30.0597 4.42178 26.5997 4.16553 23.9312C4.13467 23.6146 3.87306 23.3718 3.55375 23.3718H0.614282C0.257413 23.3718 -0.0203003 23.6737 0.00116547 24.0305C0.336568 29.6183 4.9061 34.1677 10.4698 34.1677C16.0334 34.1677 20.9585 29.2561 20.9585 23.3718V0.957476C20.9585 0.618048 20.6835 0.343018 20.344 0.343018H17.4153Z" fill="black"></path><path d="M125.553 0.343018H129.475C129.981 0.343018 130.271 0.921252 129.968 1.32642L115.788 20.2713V32.6987C115.788 33.0381 115.513 33.3131 115.174 33.3131H112.245C111.906 33.3131 111.631 33.0381 111.631 32.6987V20.2713L97.4565 1.32642C97.1533 0.921252 97.4431 0.343018 97.9489 0.343018H101.864C102.058 0.343018 102.241 0.435589 102.357 0.591216L113.219 15.1973C113.465 15.5274 113.96 15.5274 114.205 15.1973L125.06 0.591216C125.176 0.435589 125.359 0.343018 125.553 0.343018Z" fill="black"></path><path d="M70.7795 33.3145H90.5092C90.8487 33.3145 91.1237 33.0395 91.1237 32.7V29.7713C91.1237 29.4319 90.8487 29.1568 90.5092 29.1568H74.9372C74.5977 29.1568 74.3227 28.8818 74.3227 28.5424V19.6797C74.3227 19.3403 74.5977 19.0652 74.9372 19.0652H89.279C89.6184 19.0652 89.8934 18.7902 89.8934 18.4508V15.522C89.8934 15.1826 89.6184 14.9076 89.279 14.9076H74.9372C74.5977 14.9076 74.3227 14.6325 74.3227 14.2931V5.11513C74.3227 4.77571 74.5977 4.50067 74.9372 4.50067H90.5092C90.8487 4.50067 91.1237 4.22564 91.1237 3.88622V0.957476C91.1237 0.618048 90.8487 0.343018 90.5092 0.343018H70.7795C70.4401 0.343018 70.165 0.618048 70.165 0.957476V32.7C70.165 33.0395 70.4401 33.3145 70.7795 33.3145Z" fill="black"></path><path d="M209.73 13.6925L201.435 21.9757L211.001 32.2441C211.376 32.6467 211.093 33.3084 210.539 33.3084H204.153C203.97 33.3084 203.798 33.2286 203.679 33.0931L198.134 26.775C197.161 25.6669 195.332 26.3525 195.332 27.8314V32.6746C195.332 33.0253 195.049 33.3084 194.698 33.3084H189.6C189.249 33.3084 188.966 33.0253 188.966 32.6746V0.633798C188.966 0.283016 189.249 0 189.6 0H194.698C195.049 0 195.332 0.283016 195.332 0.633798V20.4769L202.886 12.8036C203.005 12.684 203.169 12.6162 203.336 12.6162H209.287C209.849 12.6162 210.132 13.2978 209.734 13.6964L209.73 13.6925Z" fill="black"></path><path d="M263.552 32.6746V0.633798C263.552 0.283016 263.835 0 264.186 0H269.232C269.583 0 269.866 0.283016 269.866 0.633798V32.6746C269.866 33.0253 269.583 33.3084 269.232 33.3084H264.186C263.835 33.3084 263.552 33.0253 263.552 32.6746Z" fill="black"></path><path d="M222.724 12.0938C228.572 12.0938 233.327 17.0605 233.327 22.9042C233.327 28.7479 228.568 33.8183 222.724 33.8183C216.881 33.8183 212.121 28.8516 212.121 22.9042C212.121 16.9569 216.881 12.0938 222.724 12.0938ZM222.724 28.2337C225.467 28.2337 227.691 25.854 227.691 22.9042C227.691 19.9545 225.467 17.6784 222.724 17.6784C219.982 17.6784 217.758 20.0063 217.758 22.9042C217.758 25.8022 219.93 28.2337 222.724 28.2337Z" fill="black"></path><path d="M237.642 7.825C239.743 5.72429 240.624 2.87419 240.301 0.135696C237.566 -0.191169 234.712 0.693752 232.611 2.79446C230.511 4.89517 229.63 7.74528 229.953 10.4838C232.687 10.8106 235.541 9.9257 237.642 7.825Z" fill="black"></path><path d="M257.133 12.6121H252.593C252.242 12.6121 251.959 12.8951 251.959 13.2459V14.5335C250.329 13.0187 248.252 12.0979 246 12.0979C240.762 12.0979 236.501 17.0647 236.501 22.9084C236.501 28.7521 240.766 33.8225 246 33.8225C247.818 33.8225 249.516 33.2246 250.959 32.1961C251.377 31.8972 251.959 32.1961 251.959 32.7064V33.0492C251.959 33.1887 252.071 33.3003 252.21 33.3003H257.129C257.48 33.3003 257.763 33.0173 257.763 32.6665V13.2379C257.763 12.8872 257.48 12.6042 257.129 12.6042L257.133 12.6121ZM247.419 28.2339C244.625 28.2339 242.452 25.8542 242.452 22.9044C242.452 19.9546 244.625 17.6785 247.419 17.6785C250.213 17.6785 252.386 20.0065 252.386 22.9044C252.386 25.8023 250.162 28.2339 247.419 28.2339Z" fill="black"></path><path d="M294.831 12.6121H290.29C289.94 12.6121 289.657 12.8951 289.657 13.2459V14.5335C288.026 13.0187 285.949 12.0979 283.697 12.0979C278.459 12.0979 274.198 17.0647 274.198 22.9084C274.198 28.7521 278.463 33.8225 283.697 33.8225C285.515 33.8225 287.213 33.2246 288.656 32.1961C289.075 31.8972 289.657 32.1961 289.657 32.7064V33.0492C289.657 33.1887 289.768 33.3003 289.908 33.3003H294.827C295.177 33.3003 295.46 33.0173 295.46 32.6665V13.2379C295.46 12.8872 295.177 12.6042 294.827 12.6042L294.831 12.6121ZM285.116 28.2339C282.322 28.2339 280.15 25.8542 280.15 22.9044C280.15 19.9546 282.322 17.6785 285.116 17.6785C287.911 17.6785 290.083 20.0065 290.083 22.9044C290.083 25.8023 287.859 28.2339 285.116 28.2339Z" fill="black"></path><path d="M146.785 15.4044V33.0436C146.785 33.2368 146.939 33.3926 147.13 33.3926H150.108C150.184 33.3926 150.245 33.3311 150.245 33.2543V33.0656C150.245 32.7825 150.561 32.6201 150.789 32.7847C151.574 33.3509 152.499 33.68 153.486 33.68C156.334 33.68 158.651 30.9457 158.651 27.6715C158.651 24.4522 156.332 21.7201 153.486 21.7201C152.259 21.7201 151.131 22.227 150.245 23.0609V15.4087C150.245 15.2156 150.091 15.0598 149.9 15.0598H147.128C146.937 15.0598 146.783 15.2156 146.783 15.4087L146.785 15.4044ZM150.015 27.6671C150.015 26.0718 151.225 24.7902 152.716 24.7902C154.236 24.7902 155.417 26.0718 155.417 27.6671C155.417 29.2911 154.236 30.6012 152.716 30.6012C151.225 30.6012 150.015 29.2911 150.015 27.6671Z" fill="black"></path><path d="M168.151 22.2258H170.784C171.032 22.2258 171.202 22.476 171.105 22.7023L164.319 38.7891C164.264 38.9174 164.138 39.0001 163.998 39.0001H161.406C161.16 39.0001 160.991 38.7543 161.083 38.528L163.815 31.803C163.85 31.716 163.848 31.6159 163.808 31.5311L159.706 22.7131C159.6 22.4847 159.768 22.2236 160.023 22.2236H162.7C162.836 22.2236 162.962 22.3019 163.017 22.4259L165.218 27.232C165.344 27.5083 165.744 27.4996 165.859 27.2189L167.827 22.4368C167.88 22.3063 168.008 22.2214 168.151 22.2214V22.2258Z" fill="black"></path><path d="M168.151 22.2258H170.784C171.032 22.2258 171.202 22.476 171.105 22.7023L164.319 38.7891C164.264 38.9174 164.138 39.0001 163.998 39.0001H161.406C161.16 39.0001 160.991 38.7543 161.083 38.528L163.815 31.803C163.85 31.716 163.848 31.6159 163.808 31.5311L159.706 22.7131C159.6 22.4847 159.768 22.2236 160.023 22.2236H162.7C162.836 22.2236 162.962 22.3019 163.017 22.4259L165.218 27.232C165.344 27.5083 165.744 27.4996 165.859 27.2189L167.827 22.4368C167.88 22.3063 168.008 22.2214 168.151 22.2214V22.2258Z" fill="black"></path></svg>